<?xml version="1.0" standalone="no"?>
<!DOCTYPE svg PUBLIC "-//W3C//DTD SVG 20010904//EN"
 "http://www.w3.org/TR/2001/REC-SVG-20010904/DTD/svg10.dtd">
<svg version="1.0" xmlns="http://www.w3.org/2000/svg"
 width="388.000000pt" height="413.000000pt" viewBox="0 0 388.000000 413.000000"
 preserveAspectRatio="xMidYMid meet">

<g transform="translate(0.000000,413.000000) scale(0.100000,-0.100000)"
fill="#000000" stroke="none">
<path d="M574 3961 c-188 -54 -349 -219 -400 -411 -16 -60 -17 -170 -17 -1460
-1 -1527 -4 -1443 60 -1579 69 -145 237 -278 391 -310 37 -8 432 -11 1280 -11
1355 0 1288 -3 1421 64 124 63 233 187 284 325 20 55 21 77 29 1196 9 1161 5
1670 -14 1760 -5 28 -26 83 -45 124 -44 92 -159 212 -248 258 -127 66 -54 63
-1431 62 -1154 0 -1254 -2 -1310 -18z m1541 -1362 c217 -81 252 -400 57 -529
l-45 -30 41 0 c62 0 82 -25 82 -100 0 -44 4 -61 16 -68 9 -5 14 -18 12 -33 -3
-24 -5 -24 -110 -26 -119 -2 -138 6 -138 57 0 36 36 66 90 75 24 4 40 12 40
20 0 22 -22 29 -35 12 -7 -10 -26 -17 -44 -17 -28 0 -31 3 -31 30 0 28 -3 30
-35 30 l-35 0 0 -70 c0 -54 4 -72 15 -76 8 -4 15 -17 15 -30 0 -20 -5 -24 -32
-25 -18 0 -67 -3 -109 -5 -98 -6 -112 7 -117 107 -2 38 -8 69 -13 69 -16 0
-10 48 7 54 9 3 35 6 59 6 l44 0 3 -82 c2 -66 6 -83 18 -83 11 0 16 14 18 53
3 43 0 52 -14 52 -12 0 -15 7 -12 30 3 22 0 31 -14 36 -36 11 -107 94 -127
149 -95 254 140 489 394 394z m755 -8 c6 -12 23 -21 43 -23 l32 -3 0 -60 0
-60 -80 0 -80 0 -3 69 c-2 38 -1 75 2 83 8 21 73 17 86 -6z m-105 -61 c3 -6
-1 -13 -9 -16 -23 -9 -24 -194 -1 -194 8 0 15 -4 15 -10 0 -5 -7 -10 -15 -10
-23 0 -22 -185 1 -194 23 -9 5 -29 -22 -23 -20 3 -24 0 -24 -19 0 -19 5 -24
25 -24 21 0 25 -5 25 -30 0 -25 -4 -30 -25 -30 -23 0 -25 -3 -25 -50 0 -47 2
-50 25 -50 21 0 25 -5 25 -29 0 -34 -14 -41 -75 -41 -59 0 -75 23 -75 107 0
49 -3 63 -15 63 -27 0 -17 45 15 68 17 13 30 31 30 42 0 16 7 20 35 20 l35 0
0 95 c0 78 -3 95 -15 95 -8 0 -15 5 -15 10 0 6 7 10 15 10 12 0 15 18 15 103
0 57 3 107 7 110 10 10 41 8 48 -3z m-117 -46 c21 -15 22 -21 22 -174 0 -153
-1 -159 -22 -174 -12 -9 -37 -16 -55 -16 -27 0 -32 -4 -35 -27 -3 -26 -6 -28
-53 -28 l-50 0 1 38 c1 20 -3 37 -7 37 -5 0 -9 74 -9 164 0 197 -1 196 115
196 48 0 78 -5 93 -16z m218 -109 c12 -19 25 -25 51 -25 l34 0 -3 -62 -3 -63
-68 -3 c-42 -2 -74 2 -83 9 -18 15 -19 140 -2 157 20 20 56 14 74 -13z m4
-214 c6 -12 23 -21 43 -23 31 -3 32 -5 35 -50 l3 -48 50 0 c42 0 49 -3 49 -19
0 -11 -4 -22 -9 -25 -5 -3 -36 -63 -70 -132 -57 -119 -68 -161 -35 -133 11 9
18 9 26 1 8 -8 15 -9 25 -1 9 8 17 8 26 0 8 -6 17 -8 20 -4 4 3 7 1 7 -5 0
-15 -17 -16 -25 -2 -5 8 -11 7 -21 -1 -11 -9 -18 -9 -26 -1 -8 8 -15 9 -25 1
-9 -8 -17 -8 -26 0 -8 6 -17 8 -21 4 -10 -10 -126 -10 -133 0 -2 4 -11 3 -19
-4 -11 -9 -18 -9 -26 -1 -9 9 -15 9 -25 0 -10 -8 -17 -8 -25 0 -9 9 -15 9 -25
0 -10 -8 -17 -8 -25 0 -8 8 -15 9 -25 1 -9 -8 -17 -8 -26 0 -10 8 -17 7 -25
-1 -9 -9 -15 -9 -24 0 -8 8 -15 9 -25 1 -9 -8 -17 -8 -26 0 -10 8 -17 7 -25
-1 -9 -9 -15 -9 -24 0 -9 9 -15 9 -25 0 -10 -8 -17 -8 -25 0 -9 9 -15 9 -25 0
-10 -8 -17 -8 -25 0 -9 9 -15 9 -25 0 -10 -8 -17 -8 -25 0 -9 9 -15 9 -25 0
-10 -8 -17 -8 -25 0 -9 9 -15 9 -25 0 -10 -8 -17 -8 -25 0 -9 9 -15 9 -25 0
-10 -8 -17 -8 -25 0 -9 9 -15 9 -25 0 -10 -8 -17 -8 -25 0 -9 9 -15 9 -25 0
-10 -8 -17 -8 -25 0 -9 9 -15 9 -25 0 -10 -8 -17 -8 -25 0 -9 9 -15 9 -25 0
-10 -8 -17 -8 -25 0 -9 9 -15 9 -25 0 -10 -8 -17 -8 -25 0 -9 9 -15 9 -25 0
-10 -8 -17 -8 -25 0 -9 9 -15 9 -25 0 -10 -8 -17 -8 -25 0 -9 9 -15 9 -25 0
-10 -8 -17 -8 -25 0 -9 9 -15 9 -25 0 -10 -8 -17 -8 -26 2 -9 9 -9 11 0 6 6
-3 14 -2 18 4 10 16 -17 11 -37 -7 -15 -14 -21 -14 -31 -3 -8 9 -9 11 0 6 6
-3 14 -2 18 4 10 16 -17 11 -37 -7 -14 -12 -21 -14 -30 -5 -8 8 -15 9 -25 1
-9 -8 -17 -8 -26 0 -10 8 -17 7 -25 -1 -9 -9 -15 -9 -24 0 -9 9 -15 9 -25 0
-10 -8 -17 -8 -25 0 -9 9 -15 9 -25 0 -10 -8 -17 -8 -25 0 -9 9 -15 9 -25 0
-10 -8 -17 -8 -25 0 -9 9 -15 9 -25 0 -10 -8 -17 -8 -25 0 -9 9 -15 9 -25 0
-10 -8 -17 -8 -25 0 -9 9 -15 9 -25 0 -10 -8 -17 -8 -25 0 -9 9 -15 9 -25 0
-10 -8 -17 -8 -25 0 -9 9 -15 9 -25 0 -10 -8 -17 -8 -25 0 -8 8 -15 9 -25 1
-9 -8 -17 -8 -26 0 -10 8 -17 7 -25 -1 -9 -9 -15 -9 -24 0 -9 9 -15 9 -25 0
-10 -8 -17 -8 -25 0 -9 9 -15 9 -25 0 -10 -8 -17 -8 -25 0 -9 9 -15 9 -25 0
-10 -8 -17 -8 -25 0 -9 9 -15 9 -25 0 -10 -8 -17 -8 -25 0 -9 9 -15 9 -25 0
-10 -8 -17 -8 -25 0 -9 9 -15 9 -25 0 -10 -8 -17 -8 -25 0 -9 9 -15 9 -25 0
-10 -8 -17 -8 -25 0 -8 8 -15 9 -25 1 -9 -8 -17 -8 -27 0 -10 8 -16 9 -21 1
-3 -5 -11 -10 -18 -10 -6 0 -4 7 6 17 13 13 20 14 29 5 9 -9 15 -9 25 0 10 8
17 8 25 0 9 -9 15 -9 25 0 10 8 17 8 25 0 9 -9 15 -9 25 0 10 8 17 8 25 0 9
-9 15 -9 25 0 10 8 17 8 25 0 9 -9 15 -9 25 0 10 8 17 8 25 0 9 -9 15 -9 25 0
10 8 17 8 25 0 9 -9 15 -9 25 0 10 8 17 8 25 0 8 -8 15 -9 25 -1 9 8 17 8 26
0 10 -8 17 -7 25 1 9 9 15 9 24 0 9 -9 15 -9 25 0 10 8 17 8 25 0 9 -9 15 -9
25 0 10 8 17 8 25 0 9 -9 15 -9 25 0 10 8 17 8 25 0 9 -9 15 -9 25 0 10 8 17
8 25 0 9 -9 15 -9 25 0 10 8 17 8 25 0 9 -9 15 -9 25 0 10 8 17 8 25 0 9 -9
15 -9 25 0 10 8 17 8 25 0 9 -9 15 -9 25 0 10 8 17 8 25 0 9 -9 15 -9 25 0 10
8 17 8 25 0 9 -9 15 -9 25 0 10 8 17 8 25 0 8 -8 15 -9 25 -1 9 8 17 8 27 0 9
-8 16 -8 20 -2 4 5 -13 19 -36 30 -71 34 -122 77 -140 118 -37 81 -10 194 54
233 44 27 141 28 184 1 40 -24 64 -77 64 -140 0 -64 -18 -109 -58 -143 l-31
-26 45 -7 c39 -5 45 -9 42 -28 -4 -33 10 -51 28 -36 11 9 18 9 26 1 9 -9 15
-9 25 0 10 8 17 8 25 0 8 -8 15 -9 25 -1 9 8 17 8 26 0 10 -8 17 -7 25 1 9 9
15 9 24 0 9 -9 15 -9 25 0 10 8 17 8 25 0 9 -9 15 -9 25 0 10 8 17 8 25 0 9
-9 15 -9 25 0 10 8 17 8 25 0 9 -9 15 -9 25 0 10 8 17 8 25 0 9 -9 15 -9 25 0
10 8 17 8 25 0 9 -9 15 -9 25 0 10 8 17 8 25 0 9 -9 15 -9 25 0 10 8 17 8 25
0 9 -9 15 -9 25 0 10 8 17 8 25 0 9 -9 15 -9 25 0 10 8 17 8 25 0 9 -9 15 -9
25 0 10 8 17 8 25 0 9 -9 15 -9 25 0 10 8 17 8 25 0 9 -9 15 -9 25 0 10 8 17
8 25 0 9 -9 15 -9 25 0 10 8 17 8 25 0 8 -8 15 -9 25 -1 9 8 17 8 26 0 10 -8
17 -7 25 1 9 9 15 9 24 0 8 -8 15 -9 25 -1 9 8 17 8 26 0 10 -8 17 -7 25 1 8
8 15 8 27 -2 13 -11 15 -7 15 29 0 39 2 41 29 41 16 0 31 -6 33 -12 3 -8 9 -4
17 9 10 19 6 34 -30 105 -23 46 -45 84 -50 86 -8 3 -2 151 7 180 6 20 72 15
84 -7z m-2066 -41 c23 -8 26 -15 26 -60 l0 -50 -44 0 c-41 0 -45 2 -48 28 -4
34 -35 41 -69 13 -21 -16 -24 -28 -24 -79 0 -67 21 -102 62 -102 18 0 23 5 23
25 0 16 -6 25 -15 25 -9 0 -15 9 -15 25 0 25 1 25 80 25 79 0 80 0 80 -25 0
-15 -6 -25 -14 -25 -11 0 -16 -14 -18 -47 -4 -63 -26 -75 -130 -71 -69 3 -80
6 -108 33 -77 73 -58 234 33 279 36 18 141 21 181 6z m333 -10 c45 -27 65 -71
64 -141 0 -63 -15 -101 -56 -139 -21 -20 -38 -25 -93 -28 -106 -5 -158 38
-169 141 -7 69 21 138 69 167 45 27 140 28 185 0z m1273 -115 c0 -83 4 -135
10 -135 6 0 10 -11 10 -25 0 -24 -2 -25 -70 -25 -68 0 -70 1 -70 25 0 14 5 25
10 25 6 0 10 42 10 105 0 87 -3 105 -15 105 -18 0 -21 46 -2 53 6 3 36 6 65 6
l52 1 0 -135z m-1064 73 c-3 -29 -6 -77 -6 -105 l0 -53 -39 0 -38 0 -7 53 c-3
28 -6 76 -6 105 l0 52 51 0 52 0 -7 -52z m1214 -117 c0 -70 3 -90 15 -95 8 -3
15 -15 15 -26 0 -18 -6 -20 -75 -20 -72 0 -75 1 -75 24 0 13 7 26 15 30 11 4
15 20 15 56 0 36 -4 52 -15 56 -15 6 -21 45 -8 57 3 4 30 7 60 7 l53 0 0 -89z
m-1219 -82 c17 -33 -3 -69 -39 -69 -33 0 -52 16 -52 45 0 29 19 45 52 45 18 0
31 -7 39 -21z"/>
<path d="M1905 2574 c-77 -27 -151 -109 -169 -186 -10 -44 9 -32 25 15 18 56
101 139 155 155 101 30 188 9 259 -63 31 -30 56 -67 64 -92 16 -47 35 -59 25
-15 -10 45 -52 108 -91 141 -70 58 -180 76 -268 45z"/>
<path d="M1900 2513 c-57 -30 -80 -55 -105 -115 l-15 -38 220 0 220 0 -15 38
c-25 60 -48 85 -105 115 -36 18 -69 27 -100 27 -31 0 -64 -9 -100 -27z m116
-8 c4 -8 12 -15 19 -15 20 0 29 -20 16 -33 -6 -6 -11 -21 -11 -33 0 -18 -6
-21 -38 -21 -35 0 -39 3 -49 36 -12 38 -9 51 12 51 7 0 15 7 19 15 3 8 10 15
16 15 6 0 13 -7 16 -15z m-106 -42 c12 -13 17 -26 13 -45 -4 -24 -10 -28 -37
-28 -26 0 -34 5 -43 29 -9 26 -8 32 11 45 28 20 33 19 56 -1z m234 2 c21 -14
23 -19 13 -45 -9 -25 -17 -30 -43 -30 -27 0 -33 4 -37 28 -3 17 1 33 11 44 21
21 27 22 56 3z"/>
<path d="M1990 2455 c0 -8 5 -15 10 -15 6 0 10 7 10 15 0 8 -4 15 -10 15 -5 0
-10 -7 -10 -15z"/>
<path d="M1733 2280 c11 -88 13 -90 128 -90 76 0 100 -3 97 -12 -3 -7 -29 -15
-59 -18 l-54 -6 55 -27 c35 -17 71 -27 100 -27 29 0 65 10 100 27 l55 27 -54
6 c-30 3 -56 11 -59 18 -3 9 21 12 97 12 115 0 117 2 128 90 l6 50 -273 0
-273 0 6 -50z m106 3 c10 -17 10 -17 11 0 0 29 30 20 31 -10 l2 -28 4 28 c6
37 39 34 36 -3 -3 -25 -2 -25 13 3 20 36 37 34 52 -6 7 -18 12 -36 12 -39 0
-12 -128 -2 -144 11 -15 12 -17 12 -14 0 4 -18 -48 -25 -68 -8 -14 12 -19 50
-7 62 13 14 62 7 72 -10z m201 -7 c0 -14 5 -28 10 -31 18 -11 10 -25 -15 -25
-22 0 -25 4 -25 40 0 29 4 40 15 40 9 0 15 -9 15 -24z m60 -16 c0 -29 -4 -40
-15 -40 -11 0 -15 11 -15 40 0 29 4 40 15 40 11 0 15 -11 15 -40z m140 31 c0
-4 -5 -22 -11 -40 -13 -36 -31 -36 -39 -1 -9 36 -30 37 -30 1 0 -21 -5 -31
-15 -31 -10 0 -15 10 -15 30 0 17 -4 30 -10 30 -5 0 -10 5 -10 10 0 6 28 10
65 10 36 0 65 -4 65 -9z m-230 -116 c0 -8 -4 -15 -10 -15 -5 0 -10 7 -10 15 0
8 5 15 10 15 6 0 10 -7 10 -15z"/>
<path d="M1790 2259 c0 -5 5 -7 10 -4 6 3 10 8 10 11 0 2 -4 4 -10 4 -5 0 -10
-5 -10 -11z"/>
<path d="M1801 2134 c13 -14 44 -38 69 -52 39 -24 56 -27 130 -27 74 0 91 3
130 27 50 29 101 78 81 78 -7 0 -30 -15 -52 -33 -44 -38 -97 -57 -159 -57 -62
0 -115 19 -159 57 -46 39 -75 45 -40 7z"/>
<path d="M2138 1899 c-22 -12 -24 -39 -3 -39 16 0 29 22 23 39 -2 6 -9 6 -20
0z"/>
<path d="M2805 2580 c-4 -6 5 -10 19 -10 14 0 26 5 26 10 0 6 -9 10 -19 10
-11 0 -23 -4 -26 -10z"/>
<path d="M2808 2510 l-4 -40 64 0 63 0 -3 38 -3 37 -56 3 -57 3 -4 -41z"/>
<path d="M2480 2469 c-24 -10 -24 -11 -6 -25 22 -16 132 -19 156 -4 42 26 -94
53 -150 29z"/>
<path d="M2460 2396 c0 -28 33 -39 107 -38 53 1 83 17 83 42 0 16 -4 17 -32 9
-42 -12 -100 -12 -132 1 -23 9 -26 7 -26 -14z"/>
<path d="M2460 2326 c0 -30 23 -39 103 -38 59 1 87 13 87 37 0 10 -17 12 -73
8 -47 -4 -81 -1 -95 6 -20 11 -22 9 -22 -13z"/>
<path d="M2462 2245 c7 -48 188 -40 188 9 0 7 -31 11 -95 11 -89 0 -96 -1 -93
-20z"/>
<path d="M2460 2177 c0 -36 124 -52 168 -21 43 30 27 39 -73 39 -84 0 -95 -2
-95 -18z"/>
<path d="M2805 2360 c3 -5 15 -10 26 -10 10 0 19 5 19 10 0 6 -12 10 -26 10
-14 0 -23 -4 -19 -10z"/>
<path d="M2810 2290 l0 -40 60 0 60 0 0 40 0 40 -60 0 -60 0 0 -40z"/>
<path d="M2813 2143 c9 -2 23 -2 30 0 6 3 -1 5 -18 5 -16 0 -22 -2 -12 -5z"/>
<path d="M2810 2075 c0 -35 0 -35 44 -35 24 0 51 -3 60 -6 13 -5 16 2 16 35
l0 41 -60 0 -60 0 0 -35z"/>
<path d="M1519 2051 c-18 -14 -23 -31 -27 -79 -4 -55 -2 -63 21 -86 32 -32 42
-32 72 -1 21 20 25 34 25 80 0 46 -4 60 -25 80 -29 30 -36 31 -66 6z"/>
<path d="M2905 1990 c-3 -11 -2 -27 3 -36 9 -16 11 -15 21 4 11 21 6 52 -9 52
-5 0 -11 -9 -15 -20z"/>
<path d="M1022 2059 c-30 -11 -45 -53 -39 -113 5 -57 35 -91 71 -80 35 10 46
34 46 99 0 81 -26 113 -78 94z"/>
</g>
</svg>
